/* XPM */
static char *_8737_b9b782d1288d8c6166860c4a7ede72fb4dd7968ca2a12fb8835db349e2e7837d[] = {
/* columns rows colors chars-per-pixel */
"28 28 126 2 ",
"   c #181500",
".  c #310000",
"X  c #370000",
"o  c #3A0000",
"O  c #3B0000",
"+  c #3C0000",
"@  c #3D0000",
"#  c #3D1E07",
"$  c #240418",
"%  c #002000",
"&  c #002300",
"*  c #002700",
"=  c #353100",
"-  c #383600",
";  c #3E3900",
":  c #400000",
">  c #410000",
",  c #450000",
"<  c #460000",
"1  c #470000",
"2  c #520000",
"3  c #570000",
"4  c #5A0000",
"5  c #693117",
"6  c #004000",
"7  c #045F00",
"8  c #006E00",
"9  c #605F00",
"0  c #6D6F00",
"q  c #6F7200",
"w  c #707100",
"e  c #777800",
"r  c #A50000",
"t  c #A60000",
"y  c #A90000",
"u  c #AD0000",
"i  c #AE0000",
"p  c #AF0000",
"a  c #B10000",
"s  c #B60000",
"d  c #B90000",
"f  c #BD0000",
"g  c #84303D",
"h  c #C20000",
"j  c #C40000",
"k  c #CC0000",
"l  c red",
"z  c #FF0030",
"x  c #049000",
"c  c #00A200",
"v  c #00B500",
"b  c #7F8300",
"n  c #778A00",
"m  c #17FF18",
"M  c #838400",
"N  c #838500",
"B  c #828700",
"V  c #898A00",
"C  c #8F8F00",
"Z  c #839600",
"A  c #909100",
"S  c #8EA300",
"D  c #8FA400",
"F  c #98A400",
"G  c #92A800",
"H  c #9BA800",
"J  c #9BB300",
"K  c #97B800",
"L  c #9DBE00",
"P  c #B9AF00",
"I  c #AEB600",
"U  c #BAB000",
"Y  c #BEB200",
"T  c #CBB000",
"R  c #C0BE00",
"E  c #A3C300",
"W  c #B9CD00",
"Q  c #A2D600",
"!  c #ACD600",
"~  c #C4C200",
"^  c #C1CD00",
"/  c #D1C600",
"(  c #D2C900",
")  c #CCD800",
"_  c #CCDB00",
"`  c #E1D100",
"'  c #E2D000",
"]  c #E3D200",
"[  c #D4F100",
"{  c #D2F600",
"}  c #DBF500",
"|  c #D0FD00",
" . c #E4EE00",
".. c #F5ED00",
"X. c #E7FF00",
"o. c #FEFF00",
"O. c yellow",
"+. c #FFF718",
"@. c #FFFF34",
"#. c #FFFE38",
"$. c #FFFF3F",
"%. c #FF925E",
"&. c #FFFF40",
"*. c #FFFF44",
"=. c #FFFF48",
"-. c #FFFF4B",
";. c #FFFF4C",
":. c #FFFF4E",
">. c #FFFF50",
",. c #FFFF58",
"<. c #000084",
"1. c #000088",
"2. c #0079A8",
"3. c blue",
"4. c #5359FF",
"5. c #8700CC",
"6. c #0081A8",
"7. c #FFBEB0",
"8. c #FFFFB2",
"9. c #FFFFBA",
"0. c #FFFFBE",
"q. c #EEE1E1",
"w. c #EFE2E2",
"e. c #E8E6FF",
"r. c #F9EBFE",
"t. c white",
/* pixels */
"t.t.t.t.t.t.t.t.t.t.t.t.t.t.t.t.t.t.t.t.t.t.t.t.t.t.t.t.",
"t.t.t.t.t.t.t.t.t.t.t.t.t.t.t.t.t.t.t.t.t.t.t.t.t.t.t.t.",
"t.t.t.t.t.t.t.t.t.t.t.t.t.t.t.t.t.t.t.t.t.t.t.t.t.t.t.t.",
"t.t.t.t.t.t.t.t.t.t.t.t.t.t.t.t.t.t.t.t.t.t.t.t.t.t.t.t.",
"t.t.t.t.t.t.t.t.t.t.t.t.t.t.t.t.t.t.t.t.t.t.t.t.t.t.t.t.",
"t.t.t.t.t.t.t.t.t.t.t.t.t.t.t.t.t.t.t.t.t.t.t.t.t.t.t.t.",
"t.t.t.t.t.t.t.t.t.t.t.t.t.t.t.t.t.t.t.t.t.t.t.t.t.t.t.t.",
"t.t.t.t.t.t.t.t.t.t.t.t.t.t.t.t.t.t.t.t.t.t.t.t.t.t.t.t.",
"t.t.t.t.t.t.t.t.t.t.t.t.t.t.t.t.t.t.t.t.t.t.t.t.t.t.t.t.",
"t.t.t.t.t.t.t.t.t.t.t.t.t.t.t.t.t.t.t.t.t.t.t.t.t.t.t.t.",
"t.t.t.t.t.t.t.t.t.t.t.t.t.t.t.t.t.t.t.t.t.t.t.t.t.t.t.t.",
"t.t.t.t.t.t.t.t.t.t.t.t.t.t.t.t.t.t.t.t.t.t.t.t.t.t.t.t.",
"t.t.t.t.t.t.t.t.t.t.t.t.t.t.t.t.t.t.t.t.t.t.t.t.t.t.t.t.",
"t.t.t.t.t.t.t.t.t.t.t.t.t.t.t.t.t.t.t.t.t.t.t.t.t.t.t.t.",
"t.t.t.t.t.t.t.t.t.t.t.t.t.t.t.t.t.t.t.t.t.t.t.t.t.t.t.t.",
"t.t.t.t.t.t.t.t.t.t.t.t.t.t.t.t.t.t.t.t.t.t.t.t.t.t.t.t.",
"t.t.t.t.t.t.t.t.t.t.t.m m t.t.t.t.t.t.t.t.t.t.t.t.t.t.t.",
"t.t.t.t.t.W P #.+.t.t.c v 8 t.-.:.t.t.t.t.t.t.t.t.t.t.t.",
"t.t.t.^ y l 9.U ~ 0.* x 7 & e.4.3.9 ..B t.t.t.t.t.t.t.t.",
"t.t.t.^ s | ` 8.g %.;.6 % 5 <.3.1.# 7.$ b t.t.t.t.t.t.t.",
"t.t.t.t.) - o.3 >.*.=.>.>.;.$.@.$.;.&.;.,.e t.t.t.t.t.t.",
"t.t.t.t.t.t. .k _ J O o o o o o o o o . K C t.t.t.t.t.t.",
"t.t.t.t.t.t. .j } > , p u h r i h u r u t S t.t.t.t.t.t.",
"t.t.t.t.t.t. .j } : p O.a 2.O.I 6.a O.r r S t.t.t.t.t.t.",
"t.t.t.t.t.t. .f } : i G E T = ; T E H + i S t.t.t.t.t.t.",
"t.t.t.' 0 t.X.z [ X i Q 2 6.R R 6.2 ! < p S t.t.] q t.t.",
"Y w t.t.t.n 5.{ ( L t p + k @ 1 4 < d @ E C t.t.t.r.t.t.",
"t.t.t.Y w t.Z N / V D D F D F F F F D F A M t.;   t.w.q."
};
